<?xml version="1.0" encoding="UTF-8" standalone="no"?>
<svg width="100%" height="100%" viewBox="0 0 234 275" version="1.1" xmlns="http://www.w3.org/2000/svg">
    <g transform="matrix(1,0,0,1,-33.2405,-18.054704)">
        <g transform="matrix(1,0,0,1,-218,-118)">
            <g transform="matrix(0.359375,0,0,0.359375,0,0)">
                <path d="M699.148,565.426L1023.93,686.724C1052.82,676.879 1083.13,664.451 1112.01,653.977C1191.03,625.324 1269.93,593.818 1348.99,565.524L1348.92,835.66C1348.92,896.976 1348.43,959.067 1349.16,1020.3L1141.85,1097.78C1104.01,1111.95 1061.78,1128.93 1023.86,1141.72C990.208,1130.32 952.023,1114.93 918.426,1102.37L699.104,1020.53L699.148,565.426Z" style="fill:rgb(14, 165, 233);fill-rule:nonzero;"/>
            </g>
        </g>
        <g transform="matrix(1,0,0,1,-218,-118)">
            <g transform="matrix(0.359375,0,0,0.359375,0,0)">
                <path d="M1004.47,379.393C1012.99,378.131 1037.03,378.5 1045.88,379.478C1107.38,386.267 1154.12,413.87 1193.02,460.545C1108.15,506.565 1020.6,513.701 930.203,477.505C927.336,480.034 918.58,493.342 915.651,497.066C888.344,531.793 852.982,557.141 810.76,569.616C825.21,466.234 899.247,389.647 1004.47,379.393Z" style="fill:rgb(14, 165, 233);fill-rule:nonzero;"/>
            </g>
        </g>
        <g transform="matrix(1,0,0,1,-218,-118)">
            <g transform="matrix(0.359375,0,0,0.359375,0,0)">
                <path d="M1017.91,538.413L1046.01,538.481L1046.01,647.038L1021.28,646.885L991.298,646.894C991.226,637.67 991.445,628.112 991.536,618.863L1017.84,618.883C1017.7,592.06 1017.72,565.236 1017.91,538.413Z" style="fill:rgb(14, 165, 233);fill-rule:nonzero;"/>
            </g>
        </g>
        <g transform="matrix(1,0,0,1,-218,-118)">
            <g transform="matrix(0.359375,0,0,0.359375,0,0)">
                <path d="M926.348,551.483C940.382,549.289 953.546,558.861 955.785,572.888C958.024,586.915 948.494,600.11 934.474,602.393C920.391,604.687 907.124,595.105 904.875,581.014C902.625,566.924 912.25,553.687 926.348,551.483Z" style="fill:rgb(14, 165, 233);fill-rule:nonzero;"/>
            </g>
        </g>
        <g transform="matrix(1,0,0,1,-218,-118)">
            <g transform="matrix(0.359375,0,0,0.359375,0,0)">
                <path d="M1113.42,551.436C1127.49,549.507 1140.46,559.333 1142.42,573.399C1144.37,587.465 1134.57,600.459 1120.51,602.441C1106.41,604.428 1093.37,594.594 1091.41,580.491C1089.45,566.387 1099.31,553.37 1113.42,551.436Z" style="fill:rgb(14, 165, 233);fill-rule:nonzero;"/>
            </g>
        </g>
    </g>
</svg>
